<svg width="61" height="60" fill="none" xmlns="http://www.w3.org/2000/svg"><path d="M42.142 5.625H19.619a13.159 13.159 0 00-9.285 3.848A13.132 13.132 0 006.48 18.75v22.5a13.132 13.132 0 003.853 9.277 13.159 13.159 0 009.285 3.848h22.523a13.159 13.159 0 009.286-3.848 13.132 13.132 0 003.852-9.277v-22.5a13.132 13.132 0 00-3.852-9.277 13.159 13.159 0 00-9.286-3.848zM30.88 41.25a11.269 11.269 0 01-10.403-6.945 11.24 11.24 0 012.44-12.26 11.265 11.265 0 0112.273-2.439A11.242 11.242 0 0142.142 30a11.256 11.256 0 01-3.302 7.952 11.279 11.279 0 01-7.96 3.298zm14.077-22.5a2.817 2.817 0 01-2.601-1.736 2.81 2.81 0 012.052-3.835 2.818 2.818 0 013.364 2.758 2.811 2.811 0 01-2.815 2.813zM38.388 30a7.495 7.495 0 01-4.634 6.93 7.514 7.514 0 01-8.182-1.627A7.498 7.498 0 0130.881 22.5c1.99 0 3.9.79 5.308 2.197A7.496 7.496 0 0138.388 30z" fill="#232A44"/></svg>