<svg width="31" height="30" viewBox="0 0 31 30" fill="none" xmlns="http://www.w3.org/2000/svg">
<g id="Instagram">
<path id="Vector" d="M20.875 2.8125H9.625C7.88509 2.81436 6.21697 3.50636 4.98667 4.73667C3.75636 5.96697 3.06436 7.63509 3.0625 9.375V20.625C3.06436 22.3649 3.75636 24.033 4.98667 25.2633C6.21697 26.4936 7.88509 27.1856 9.625 27.1875H20.875C22.6149 27.1856 24.283 26.4936 25.5133 25.2633C26.7436 24.033 27.4356 22.3649 27.4375 20.625V9.375C27.4356 7.63509 26.7436 5.96697 25.5133 4.73667C24.283 3.50636 22.6149 2.81436 20.875 2.8125ZM15.25 20.625C14.1375 20.625 13.0499 20.2951 12.1249 19.677C11.1999 19.0589 10.4789 18.1804 10.0532 17.1526C9.62744 16.1248 9.51604 14.9938 9.73308 13.9026C9.95013 12.8115 10.4859 11.8092 11.2725 11.0225C12.0592 10.2359 13.0615 9.70013 14.1526 9.48308C15.2438 9.26604 16.3748 9.37744 17.4026 9.80318C18.4304 10.2289 19.3089 10.9499 19.927 11.8749C20.5451 12.7999 20.875 13.8875 20.875 15C20.8734 16.4914 20.2803 17.9212 19.2258 18.9758C18.1712 20.0303 16.7414 20.6234 15.25 20.625ZM22.2812 9.375C22.0031 9.375 21.7312 9.29253 21.5 9.138C21.2687 8.98348 21.0885 8.76386 20.982 8.5069C20.8756 8.24994 20.8478 7.96719 20.902 7.6944C20.9563 7.42162 21.0902 7.17105 21.2869 6.97438C21.4835 6.77771 21.7341 6.64378 22.0069 6.58952C22.2797 6.53526 22.5624 6.56311 22.8194 6.66954C23.0764 6.77598 23.296 6.95622 23.4505 7.18748C23.605 7.41874 23.6875 7.69062 23.6875 7.96875C23.6875 8.34171 23.5393 8.6994 23.2756 8.96312C23.0119 9.22684 22.6542 9.375 22.2812 9.375ZM19 15C19 15.7417 18.7801 16.4667 18.368 17.0834C17.956 17.7001 17.3703 18.1807 16.6851 18.4645C15.9998 18.7484 15.2458 18.8226 14.5184 18.6779C13.791 18.5333 13.1228 18.1761 12.5983 17.6516C12.0739 17.1272 11.7167 16.459 11.5721 15.7316C11.4274 15.0042 11.5016 14.2502 11.7855 13.5649C12.0693 12.8797 12.5499 12.294 13.1666 11.882C13.7833 11.4699 14.5083 11.25 15.25 11.25C16.2446 11.25 17.1984 11.6451 17.9016 12.3483C18.6049 13.0516 19 14.0054 19 15Z" fill="#F8F6F4"/>
</g>
</svg>
