<svg width="252" height="23" fill="none" xmlns="http://www.w3.org/2000/svg"><path d="M243.424 18.63c.82 0 1.509-.238 2.065-.717.567-.478.85-1.07.85-1.772v-1.07l-2.739.176c-.762.059-1.343.234-1.744.527-.4.293-.6.684-.6 1.172 0 .518.195.928.586 1.23.4.304.928.455 1.582.455zm-1.89 3.619c-1.572 0-2.846-.45-3.823-1.348-.967-.908-1.45-2.104-1.45-3.588 0-1.485.556-2.647 1.67-3.487 1.123-.85 2.739-1.338 4.848-1.465l3.56-.205v-1.274c0-.557-.2-.986-.601-1.29-.39-.312-.942-.468-1.655-.468-1.377 0-2.236.44-2.578 1.318h-4.658c.117-1.582.849-2.832 2.197-3.75 1.348-.918 3.125-1.377 5.332-1.377 2.246 0 3.984.489 5.215 1.465 1.23.977 1.846 2.344 1.846 4.102V22h-5.04v-2.021h-.278c-.361.693-.957 1.245-1.787 1.655-.83.41-1.763.615-2.798.615zm-17.754-8.335c-.068 1.309-.219 2.446-.454 3.413a8.863 8.863 0 01-1.025 2.593 4.468 4.468 0 01-1.802 1.714c-.752.38-1.655.571-2.71.571-.625 0-1.157-.068-1.597-.205v-4.307c.342.078.674.117.996.117.372 0 .689-.107.953-.322.263-.215.468-.527.615-.937a7.64 7.64 0 00.337-1.333c.078-.479.132-1.04.161-1.685l.381-7.837h13.125V22h-5.186V9.534h-3.545l-.249 4.38zm-18.237 4.716c.82 0 1.509-.238 2.065-.717.567-.478.85-1.07.85-1.772v-1.07l-2.739.176c-.762.059-1.343.234-1.743.527a1.38 1.38 0 00-.601 1.172c0 .518.195.928.586 1.23.4.304.928.455 1.582.455zm-1.89 3.619c-1.572 0-2.846-.45-3.823-1.348-.967-.908-1.45-2.104-1.45-3.588 0-1.485.557-2.647 1.67-3.487 1.123-.85 2.739-1.338 4.848-1.465l3.56-.205v-1.274c0-.557-.2-.986-.601-1.29-.39-.312-.942-.468-1.655-.468-1.377 0-2.236.44-2.578 1.318h-4.658c.117-1.582.849-2.832 2.197-3.75 1.348-.918 3.125-1.377 5.332-1.377 2.246 0 3.984.489 5.215 1.465 1.23.977 1.846 2.344 1.846 4.102V22h-5.039v-2.021h-.279c-.361.693-.957 1.245-1.787 1.655-.83.41-1.763.615-2.798.615zm-16.86-6.753h-.806V22h-5.185V5.696h5.185v6.182h.718l4.16-6.182h5.772l-5.64 7.354 6.006 8.95h-6.05l-4.16-6.504zm-19.219 7.075c-3.164 0-5.659-.996-7.485-2.988-1.826-1.992-2.739-4.712-2.739-8.16 0-3.446.908-6.161 2.724-8.144 1.826-1.992 4.326-2.988 7.5-2.988 1.748 0 3.335.361 4.761 1.084 1.436.713 2.573 1.709 3.413 2.988.84 1.27 1.284 2.69 1.333 4.263h-5.171c-.137-1.152-.605-2.08-1.406-2.783-.801-.713-1.777-1.07-2.93-1.07-1.474 0-2.636.591-3.486 1.773-.84 1.182-1.26 2.803-1.26 4.863 0 2.07.425 3.701 1.275 4.893.849 1.191 2.011 1.787 3.486 1.787 1.162 0 2.139-.342 2.93-1.025.791-.694 1.264-1.607 1.42-2.74h5.157c-.088 2.422-1.021 4.405-2.798 5.947-1.777 1.534-4.019 2.3-6.724 2.3zM145.719 22h-5.362V5.184h-8.247V22h-5.376V.862h18.985V22zm-50.655 0V.862h5.376V17.68h5.142V.862h5.361V17.68h5.142V.862h5.361V22H95.064zM72.784 3.294C74.67 1.292 77.204.291 80.387.291s5.713 1.001 7.588 3.003c1.875 1.992 2.812 4.702 2.812 8.13 0 3.437-.937 6.157-2.812 8.159-1.875 1.992-4.405 2.988-7.588 2.988-3.203 0-5.743-.996-7.618-2.988-1.875-2.002-2.812-4.722-2.812-8.16 0-3.427.942-6.137 2.827-8.129zm7.603 1.45c-1.494 0-2.696.606-3.604 1.817-.898 1.21-1.347 2.832-1.347 4.863 0 2.04.449 3.667 1.347 4.878.899 1.21 2.1 1.816 3.604 1.816 1.494 0 2.69-.605 3.589-1.816.898-1.211 1.347-2.837 1.347-4.878 0-2.031-.454-3.653-1.362-4.863-.898-1.211-2.09-1.817-3.574-1.817zM50.87 22.571c-2.422 0-4.394-.635-5.918-1.904-1.523-1.27-2.304-2.876-2.344-4.82h4.878a2.852 2.852 0 001.143 1.876c.635.468 1.396.703 2.285.703.986 0 1.792-.313 2.417-.938.625-.625.938-1.45.938-2.475 0-1.045-.318-1.89-.953-2.534-.625-.655-1.43-.982-2.417-.982-1.416 0-2.49.581-3.222 1.743h-4.732L43.941.862h14.063v4.19h-9.917l-.396 4.907h.279c.898-1.445 2.392-2.168 4.482-2.168 2.002 0 3.648.669 4.937 2.007 1.298 1.328 1.948 3.022 1.948 5.083 0 2.295-.777 4.15-2.33 5.566-1.552 1.416-3.598 2.124-6.137 2.124zM22.1 7.337c0-2.1.752-3.799 2.256-5.098C25.86.94 27.838.291 30.29.291c2.363 0 4.268.576 5.713 1.729 1.455 1.152 2.183 2.666 2.183 4.54 0 1.172-.386 2.344-1.158 3.516-.771 1.162-2.094 2.578-3.97 4.248l-3.486 3.208v.279h8.906V22H22.409v-3.589l6.68-6.284c1.543-1.426 2.578-2.49 3.105-3.193.528-.704.791-1.368.791-1.993 0-.78-.263-1.406-.79-1.875-.528-.478-1.226-.717-2.095-.717-.909 0-1.65.278-2.227.835-.566.556-.85 1.27-.85 2.138v.103h-4.921v-.088zM11.012 22v-3.428H.64v-4.497C2.437 10.638 5.104 6.233 8.639.862h7.456v13.52h2.636v4.19h-2.636V22h-5.083zm-5.728-7.69v.263h5.86V4.7h-.264c-1.719 2.647-3.584 5.85-5.596 9.61z" fill="#fff"/></svg>