<svg width="61" height="60" fill="none" xmlns="http://www.w3.org/2000/svg"><path d="M48.441 13.905c-.38-.196-.75-.41-1.108-.644a15.596 15.596 0 01-2.847-2.416c-2.123-2.427-2.916-4.89-3.209-6.613h.012c-.244-1.431-.143-2.357-.128-2.357h-9.67v37.357c0 .502 0 .997-.021 1.487 0 .061-.006.117-.01.183 0 .027 0 .055-.006.083v.021a8.2 8.2 0 01-4.131 6.511 8.077 8.077 0 01-4.001 1.055c-4.506 0-8.158-3.67-8.158-8.203 0-4.533 3.652-8.203 8.158-8.203a8.08 8.08 0 012.511.397l.012-9.837a17.98 17.98 0 00-13.842 4.046 18.964 18.964 0 00-4.14 5.1c-.41.704-1.95 3.53-2.136 8.115-.117 2.602.665 5.299 1.038 6.413v.024c.235.656 1.144 2.895 2.626 4.783a19.642 19.642 0 004.189 3.949v-.024l.023.024c4.682 3.178 9.872 2.969 9.872 2.969.899-.036 3.909 0 7.327-1.618 3.791-1.794 5.95-4.468 5.95-4.468a18.571 18.571 0 003.242-5.382c.875-2.298 1.167-5.054 1.167-6.156V20.682c.118.07 1.68 1.103 1.68 1.103s2.251 1.442 5.763 2.38c2.52.668 5.915.809 5.915.809v-9.59c-1.19.128-3.605-.247-6.078-1.479z" fill="#232A44"/></svg>