<svg width="61" height="60" fill="none" xmlns="http://www.w3.org/2000/svg"><path fill-rule="evenodd" clip-rule="evenodd" d="M42.672 6.57a54.858 54.858 0 00-23.911 0l-.849.188a12.266 12.266 0 00-5.877 3.171 12.247 12.247 0 00-3.342 5.779 48.703 48.703 0 000 23.942 12.247 12.247 0 008.619 8.8l1.163 6.94a1.25 1.25 0 002.067.725l6.835-6.107c5.13.309 10.278-.1 15.295-1.218l.85-.187A12.266 12.266 0 0049.4 45.43a12.247 12.247 0 003.342-5.778 48.702 48.702 0 000-23.943 12.248 12.248 0 00-3.343-5.78 12.266 12.266 0 00-5.879-3.17l-.848-.19zm-21.8 8.935a2.054 2.054 0 00-1.343.265h-.035a10.276 10.276 0 00-2.505 2.058c-.6.692-.926 1.392-1.011 2.067-.05.4-.015.805.102 1.188l.045.025a29.68 29.68 0 002.633 5.685 33.5 33.5 0 005.08 6.937l.06.085.095.07.058.068.07.06a34.035 34.035 0 006.962 5.1c2.89 1.572 4.644 2.315 5.698 2.625v.015c.308.095.588.137.87.137a4.005 4.005 0 002.413-1.035 9.853 9.853 0 002.037-2.51v-.017c.503-.95.333-1.845-.393-2.453a30.035 30.035 0 00-4.707-3.375c-1.121-.607-2.26-.24-2.72.375l-.983 1.24c-.506.615-1.422.53-1.422.53l-.025.015c-6.834-1.742-8.659-8.655-8.659-8.655s-.085-.94.549-1.42l1.23-.99c.591-.48 1.002-1.615.369-2.735a30.006 30.006 0 00-3.371-4.7 1.877 1.877 0 00-1.101-.657M32.419 12.5a1.252 1.252 0 00-1.251 1.25A1.25 1.25 0 0032.419 15c3.166 0 5.793 1.033 7.873 3.013a11.078 11.078 0 012.447 3.77c.548 1.407.799 2.91.734 4.415A1.25 1.25 0 0044.67 27.5a1.253 1.253 0 001.304-1.197 13.49 13.49 0 00-3.916-10.06l-.025-.025c-2.58-2.463-5.846-3.718-9.615-3.718zm-.085 4.11a1.252 1.252 0 00-1.251 1.25 1.25 1.25 0 001.251 1.25h.043c2.282.163 3.944.923 5.107 2.17 1.194 1.285 1.812 2.883 1.764 4.858a1.25 1.25 0 002.116.933c.24-.23.38-.544.387-.876.06-2.592-.776-4.83-2.432-6.615v-.005c-1.695-1.815-4.02-2.775-6.817-2.962l-.043-.005-.125.002zm-.048 4.188a1.254 1.254 0 00-1.36 1.18 1.252 1.252 0 001.23 1.315c1.046.055 1.715.37 2.135.792.423.425.738 1.108.796 2.175a1.25 1.25 0 002.195.796 1.25 1.25 0 00.302-.928c-.08-1.5-.55-2.825-1.514-3.8-.968-.975-2.287-1.45-3.784-1.53z" fill="#232A44"/></svg>