<svg width="24" height="24" viewBox="0 0 24 24" fill="none" xmlns="http://www.w3.org/2000/svg">
<g clip-path="url(#clip0_4095_3610)">
<path d="M8.8616 22.6983C7.76351 23.4069 6.45498 23.7156 5.15603 23.5726C3.85708 23.4298 2.64693 22.8441 1.72909 21.9139L0.926681 21.1293C0.574898 20.7694 0.37793 20.2862 0.37793 19.783C0.37793 19.2797 0.574898 18.7965 0.926681 18.4366L4.33245 15.0666C4.68927 14.7159 5.16952 14.5194 5.6698 14.5194C6.17008 14.5194 6.65034 14.7159 7.00715 15.0666C7.36698 15.4184 7.8502 15.6153 8.35341 15.6153C8.85663 15.6153 9.33985 15.4184 9.69968 15.0666L15.0491 9.71721C15.2275 9.54136 15.3692 9.33177 15.466 9.10065C15.5627 8.86953 15.6125 8.62149 15.6125 8.37095C15.6125 8.1204 15.5627 7.87236 15.466 7.64124C15.3692 7.41012 15.2275 7.20055 15.0491 7.02468C14.6984 6.66787 14.5019 6.18762 14.5019 5.68734C14.5019 5.18707 14.6984 4.7068 15.0491 4.34999L18.4369 0.962051C18.7968 0.610268 19.28 0.4133 19.7833 0.4133C20.2865 0.4133 20.7697 0.610268 21.1296 0.962051L21.914 1.76447C22.8442 2.68231 23.43 3.89244 23.5729 5.19139C23.7157 6.49034 23.4072 7.79887 22.6987 8.89698C19.0075 14.3368 14.311 19.0212 8.8616 22.6983Z" fill="#FAFCFE"/>
</g>
<defs>
<clipPath id="clip0_4095_3610">
<rect width="24" height="24" fill="white"/>
</clipPath>
</defs>
</svg>
