<svg aria-hidden="true" xmlns="http://www.w3.org/2000/svg" xmlns:xlink="http://www.w3.org/1999/xlink"><symbol viewBox="0 0 24 24" fill="none" id="arrow-up-right" xmlns="http://www.w3.org/2000/svg">
<path d="M7 17L17 7M17 7H7M17 7V17" stroke="currentColor" stroke-width="2.5" stroke-linecap="round" stroke-linejoin="round"/>
</symbol><symbol viewBox="0 0 24 24" fill="none" id="calendar" xmlns="http://www.w3.org/2000/svg">
<g clip-path="url(#bclip0_4001_1634)">
<path fill-rule="evenodd" clip-rule="evenodd" d="M7.71429 1.71429C7.71429 0.767511 6.94677 0 6 0C5.05323 0 4.28571 0.767511 4.28571 1.71429V3.42857H2.57143C1.15127 3.42857 0 4.57983 0 6V8.57143H24V6C24 4.57983 22.8487 3.42857 21.4286 3.42857H19.7145V1.71429C19.7145 0.767511 18.947 0 18.0002 0C17.0534 0 16.2859 0.767511 16.2859 1.71429V3.42857H7.71429V1.71429ZM24 10.7143H0V21.4286C0 22.8487 1.15127 24 2.57143 24H21.4286C22.8487 24 24 22.8487 24 21.4286V10.7143Z" fill="currentColor"/>
</g>
<defs>
<clipPath id="bclip0_4001_1634">
<rect width="24" height="24" fill="currentColor"/>
</clipPath>
</defs>
</symbol><symbol viewBox="0 0 24 24" fill="none" id="drop-dawn" xmlns="http://www.w3.org/2000/svg">
<path d="M16.177 10.8745L12.1995 14.189L8.22198 10.8745" stroke="currentColor" stroke-width="2" stroke-linecap="round" stroke-linejoin="round"/>
</symbol><symbol viewBox="0 0 25 24" fill="none" id="map" xmlns="http://www.w3.org/2000/svg">
<path fill-rule="evenodd" clip-rule="evenodd" d="M16.5 5.86862V15.5752C16.7309 15.6569 16.9541 15.7677 17.1641 15.9077L18.9453 17.0951C19.6099 17.5382 20.5 17.0618 20.5 16.2631V9.07048C20.5 8.73612 20.3329 8.42389 20.0547 8.23842L16.5 5.86862ZM14.5 15.5752V5.86862L11.1641 8.09256C10.9541 8.23253 10.7309 8.34334 10.5 8.42499V18.1316L13.8359 15.9077C14.0459 15.7677 14.2691 15.6569 14.5 15.5752ZM7.8359 8.09256C8.04586 8.23253 8.26907 8.34334 8.5 8.42499V18.3821L5.05279 16.6585C4.714 16.4891 4.5 16.1428 4.5 15.764V7.73714C4.5 6.93845 5.39015 6.46205 6.0547 6.90509L7.8359 8.09256ZM13.8359 3.90766C14.8436 3.23586 16.1564 3.23586 17.1641 3.90766L21.1641 6.57432C21.9987 7.13072 22.5 8.06742 22.5 9.07048V16.2631C22.5 18.6592 19.8296 20.0883 17.8359 18.7592L16.0547 17.5718C15.7188 17.3478 15.2812 17.3478 14.9453 17.5718L11.0204 20.1883C10.1247 20.7855 8.97759 20.8569 8.01467 20.3755L4.15836 18.4473C3.14201 17.9391 2.5 16.9004 2.5 15.764V7.73714C2.5 5.34106 5.17044 3.91188 7.1641 5.24099L8.9453 6.42846C9.2812 6.65239 9.7188 6.65239 10.0547 6.42846L13.8359 3.90766Z" fill="currentColor"/>
</symbol><symbol viewBox="0 0 24 24" fill="none" id="phone" xmlns="http://www.w3.org/2000/svg">
<g clip-path="url(#eclip0_4001_1629)">
<path fill-rule="evenodd" clip-rule="evenodd" d="M13.8028 1.47511C13.8028 0.765025 13.2271 0.189392 12.517 0.189392C10.8849 0.189392 9.26874 0.510865 7.76083 1.13546C6.25293 1.76005 4.88282 2.67553 3.72871 3.82964C2.57462 4.98373 1.65913 6.35385 1.03454 7.86176C0.409945 9.36966 0.0884705 10.9858 0.0884705 12.618C0.0884705 13.328 0.664105 13.9037 1.37418 13.9037C2.08427 13.9037 2.65991 13.328 2.65991 12.618C2.65991 11.3235 2.91486 10.0417 3.41023 8.84579C3.90559 7.64987 4.63166 6.56324 5.54699 5.64791C6.46231 4.73258 7.54895 4.00652 8.74488 3.51116C9.9408 3.01578 11.2226 2.76081 12.517 2.76081C13.2271 2.76081 13.8028 2.18519 13.8028 1.47511ZM11.9618 23.0736C11.0731 23.6458 10.0154 23.8966 8.96435 23.7843C7.91335 23.6721 6.93244 23.2035 6.18467 22.4565L5.53324 21.805C5.24431 21.5129 5.08224 21.1186 5.08224 20.7079C5.08224 20.297 5.24431 19.9029 5.53324 19.6108L8.2761 16.885C8.56524 16.5971 8.95665 16.4355 9.36467 16.4355C9.7727 16.4355 10.1641 16.5971 10.4532 16.885C10.7453 17.1739 11.1396 17.3361 11.5504 17.3361C11.9612 17.3361 12.3555 17.1739 12.6475 16.885L17.019 12.5136C17.3079 12.2215 17.4699 11.8273 17.4699 11.4164C17.4699 11.0056 17.3079 10.6114 17.019 10.3193C16.7311 10.0302 16.5694 9.63875 16.5694 9.23073C16.5694 8.82272 16.7311 8.43131 17.019 8.14216L19.6589 5.3993C19.951 5.11036 20.3453 4.94831 20.7561 4.94831C21.167 4.94831 21.5613 5.11036 21.8532 5.3993L22.5046 6.05073C23.2651 6.78794 23.7497 7.76365 23.8776 8.81502C24.0055 9.86639 23.7691 10.9298 23.2075 11.8279C20.2183 16.2658 16.3997 20.0844 11.9618 23.0736ZM13.0553 5.14794C13.7653 5.14794 14.341 5.72358 14.341 6.43365C14.341 7.14373 13.7653 7.71937 13.0553 7.71937C11.5776 7.71937 10.1605 8.30636 9.11567 9.3512C8.07083 10.3961 7.48384 11.8132 7.48384 13.2908C7.48384 14.0009 6.9082 14.5765 6.19812 14.5765C5.48805 14.5765 4.91241 14.0009 4.91241 13.2908C4.91241 11.1312 5.77031 9.06001 7.29739 7.53292C8.82448 6.00584 10.8956 5.14794 13.0553 5.14794Z" fill="currentColor"/>
</g>
<defs>
<clipPath id="eclip0_4001_1629">
<rect width="24" height="24" fill="currentColor"/>
</clipPath>
</defs>
</symbol><symbol viewBox="0 0 54 55" fill="none" id="play" xmlns="http://www.w3.org/2000/svg">
<circle cx="27" cy="27.5" r="27" fill="currentColor"/>
<path d="M22.5 21.498L33 28.248L22.5 34.998V21.498Z" fill="currentColor" stroke="currentColor" stroke-width="2.25" stroke-linecap="round" stroke-linejoin="round"/>
</symbol><symbol viewBox="0 0 33 32" fill="none" id="plus" xmlns="http://www.w3.org/2000/svg">
<path d="M16.5 9V23M9.5 16H23.5" stroke="currentColor" stroke-width="4" stroke-linecap="round" stroke-linejoin="round"/>
</symbol><symbol viewBox="0 0 56 56" fill="none" id="swiper-arrow" xmlns="http://www.w3.org/2000/svg">
<path d="M24 20L32 28L24 36" stroke="currentColor" stroke-width="2" stroke-linecap="round"/>
</symbol></svg>