<svg width="32" height="32" viewBox="0 0 32 32" fill="none" xmlns="http://www.w3.org/2000/svg">
<path d="M20.6 18C20.4 17.9 19.1 17.3 18.9 17.2C18.7 17.1 18.5 17.1 18.3 17.3C18.1 17.5 17.7 18.1 17.5 18.3C17.4 18.5 17.2 18.5 17 18.4C16.3 18.1 15.6 17.7 15 17.2C14.5 16.7 14 16.1 13.6 15.5C13.5 15.3 13.6 15.1 13.7 15C13.8 14.9 13.9 14.7 14.1 14.6C14.2 14.5 14.3 14.3 14.3 14.2C14.4 14.1 14.4 13.9 14.3 13.8C14.2 13.7 13.7 12.5 13.5 12C13.4 11.3 13.2 11.3 13 11.3H12.5C12.3 11.3 12 11.5 11.9 11.6C11.3 12.2 11 12.9 11 13.7C11.1 14.6 11.4 15.5 12 16.3C13.1 17.9 14.5 19.2 16.2 20C16.7 20.2 17.1 20.4 17.6 20.5C18.1 20.7 18.6 20.7 19.2 20.6C19.9 20.5 20.5 20 20.9 19.4C21.1 19 21.1 18.6 21 18.2L20.6 18ZM23.1 8.90001C19.2 5.00001 12.9 5.00001 9 8.90001C5.8 12.1 5.2 17 7.4 20.9L6 26L11.3 24.6C12.8 25.4 14.4 25.8 16 25.8C21.5 25.8 25.9 21.4 25.9 15.9C26 13.3 24.9 10.8 23.1 8.90001ZM20.4 22.9C19.1 23.7 17.6 24.2 16 24.2C14.5 24.2 13.1 23.8 11.8 23.1L11.5 22.9L8.4 23.7L9.2 20.7L9 20.4C6.6 16.4 7.8 11.4 11.7 8.90001C15.6 6.40001 20.6 7.70001 23 11.5C25.4 15.4 24.3 20.5 20.4 22.9Z" fill="black"/>
</svg>
