<svg width="32" height="32" viewBox="0 0 32 32" fill="none" xmlns="http://www.w3.org/2000/svg">
<path d="M26.54 10.42C26.4212 9.94541 26.1792 9.51057 25.8386 9.15941C25.498 8.80824 25.0707 8.55318 24.6 8.42C22.88 8 16 8 16 8C16 8 9.11996 8 7.39996 8.46C6.92921 8.59318 6.50194 8.84824 6.16131 9.19941C5.82068 9.55057 5.57875 9.98541 5.45996 10.46C5.14518 12.2056 4.9912 13.9763 4.99996 15.75C4.98874 17.537 5.14273 19.3213 5.45996 21.08C5.59092 21.5398 5.83827 21.9581 6.17811 22.2945C6.51794 22.6308 6.93878 22.8738 7.39996 23C9.11996 23.46 16 23.46 16 23.46C16 23.46 22.88 23.46 24.6 23C25.0707 22.8668 25.498 22.6118 25.8386 22.2606C26.1792 21.9094 26.4212 21.4746 26.54 21C26.8523 19.2676 27.0063 17.5103 27 15.75C27.0112 13.963 26.8572 12.1787 26.54 10.42Z" stroke="#1E1E1E" stroke-width="2" stroke-linecap="round" stroke-linejoin="round"/>
<path d="M13.75 19.02L19.5 15.75L13.75 12.48V19.02Z" stroke="#1E1E1E" stroke-width="2" stroke-linecap="round" stroke-linejoin="round"/>
</svg>
